<?xml version="1.0" standalone="no"?>
<!DOCTYPE svg PUBLIC "-//W3C//DTD SVG 20010904//EN"
 "http://www.w3.org/TR/2001/REC-SVG-20010904/DTD/svg10.dtd">
<svg version="1.0" xmlns="http://www.w3.org/2000/svg"
 width="729.000000pt" height="730.000000pt" viewBox="0 0 729.000000 730.000000"
 preserveAspectRatio="xMidYMid meet">

<g transform="translate(0.000000,730.000000) scale(0.100000,-0.100000)"
fill="#000000" stroke="none">
<path d="M20 3645 l0 -3615 3616 -2 c1989 -2 3616 -2 3617 -1 1 1 1 1628 -1
3617 l-2 3616 -3615 0 -3615 0 0 -3615z m7010 0 l0 -3395 -3395 0 -3395 0 0
3395 0 3395 3395 0 3395 0 0 -3395z"/>
<path d="M4154 6495 c-247 -45 -416 -248 -418 -505 -1 -195 77 -342 243 -454
29 -20 61 -36 72 -36 10 0 20 -4 23 -9 22 -34 300 -41 366 -8 18 9 38 17 45
17 20 0 129 77 172 122 46 48 103 140 103 166 0 10 4 22 9 28 12 13 31 119 31
173 0 47 -24 164 -40 193 -6 10 -10 22 -10 28 0 20 -86 133 -130 171 -64 56
-154 98 -246 114 -95 17 -127 17 -220 0z m235 -216 c102 -48 152 -116 171
-234 18 -111 -20 -244 -87 -306 -60 -56 -110 -74 -208 -74 -77 1 -97 5 -141
27 -80 42 -120 97 -147 203 -19 74 -13 166 13 222 11 24 20 47 20 52 0 14 112
111 129 112 9 0 32 6 51 13 49 18 145 11 199 -15z"/>
<path d="M1262 6489 c-74 -13 -199 -63 -272 -110 -158 -102 -266 -248 -321
-434 -32 -107 -34 -343 -5 -445 63 -218 209 -396 401 -489 94 -45 114 -52 200
-67 299 -53 599 47 767 255 21 25 38 49 38 52 0 3 -39 32 -86 63 l-85 57 -69
-70 c-110 -111 -236 -161 -405 -161 -158 0 -276 44 -381 143 -117 109 -174
244 -176 412 -2 241 86 411 267 520 119 71 290 98 425 66 77 -19 206 -88 260
-139 40 -39 47 -42 65 -31 11 7 29 17 40 23 34 18 115 79 115 86 0 14 -120
120 -179 159 -78 50 -197 97 -282 110 -75 13 -242 12 -317 0z"/>
<path d="M5682 6490 c-142 -26 -318 -124 -419 -234 -148 -163 -211 -345 -200
-580 6 -140 23 -210 77 -321 91 -187 246 -320 460 -393 68 -23 90 -26 240 -26
145 -1 174 2 238 22 94 30 218 93 268 137 21 19 42 35 46 35 14 0 100 122 92
129 -20 18 -164 111 -171 111 -4 0 -21 -18 -36 -40 -37 -53 -138 -123 -223
-157 -64 -25 -80 -27 -209 -27 -129 0 -146 2 -208 27 -222 87 -349 283 -351
537 -2 339 233 583 559 583 153 -1 290 -53 388 -147 36 -34 59 -50 66 -43 5 5
18 14 29 21 46 27 132 89 132 96 0 4 -31 37 -69 73 -81 76 -171 129 -290 170
-77 27 -101 30 -226 33 -77 2 -164 -1 -193 -6z"/>
<path d="M2330 5722 l0 -759 38 -7 c20 -3 70 -6 109 -6 l73 0 2 358 3 357 326
3 327 2 5 -22 c3 -11 6 -170 7 -352 0 -181 3 -332 6 -335 3 -3 52 -7 110 -9
l104 -4 0 766 0 766 -110 0 -110 0 -2 -297 -3 -298 -330 0 -330 0 -1 295 -2
295 -111 3 -111 3 0 -759z"/>
<path d="M3830 5065 l0 -105 435 0 435 0 0 105 0 105 -435 0 -435 0 0 -105z"/>
<path d="M3280 4270 c-78 -157 -214 -425 -301 -596 -88 -171 -159 -314 -159
-318 0 -12 227 -6 237 7 6 6 25 46 43 87 18 41 44 99 58 128 l24 52 230 0 229
0 25 -57 c14 -32 41 -95 61 -139 l35 -82 119 -1 c112 -2 119 -1 110 16 -5 10
-36 77 -70 148 -34 72 -81 171 -105 220 -24 50 -66 137 -94 195 -27 58 -83
175 -124 260 -41 85 -98 202 -125 260 l-51 105 -142 -285z m205 -280 l64 -145
-131 -3 c-72 -1 -133 0 -136 3 -3 3 -1 15 5 28 6 12 23 49 38 82 15 33 38 81
51 106 13 26 24 55 24 64 0 41 26 -1 85 -135z"/>
<path d="M1102 4505 c-207 -45 -365 -193 -427 -400 -23 -74 -25 -236 -6 -315
43 -177 184 -334 361 -403 99 -39 300 -41 405 -5 215 75 362 247 392 460 29
210 -31 386 -180 525 -139 129 -345 181 -545 138z m289 -242 c127 -68 180
-164 181 -328 0 -209 -114 -340 -308 -353 -178 -11 -301 81 -340 254 -46 211
47 399 221 445 53 14 206 3 246 -18z"/>
<path d="M2187 4484 c-4 -4 -7 -384 -7 -845 l0 -838 43 -6 c23 -3 242 -5 487
-3 l445 3 3 80 c2 44 0 99 -3 123 l-6 42 -355 0 -354 0 -2 723 -3 722 -121 3
c-66 1 -123 -1 -127 -4z"/>
<path d="M3900 4370 l0 -120 240 0 240 0 0 -724 0 -723 31 -7 c17 -3 74 -6
125 -6 l94 0 0 730 0 730 240 0 241 0 -3 118 -3 117 -602 3 -603 2 0 -120z"/>
<path d="M5437 4483 c-4 -3 -7 -383 -7 -843 l0 -837 38 -7 c20 -3 250 -6 510
-6 l472 0 0 125 0 125 -380 0 -380 0 0 280 0 280 325 0 325 0 0 120 0 120
-325 0 -325 0 0 205 0 205 380 0 381 0 -3 118 -3 117 -501 3 c-275 1 -504 -1
-507 -5z"/>
<path d="M760 2920 l0 -120 483 2 482 3 0 115 0 115 -482 3 -483 2 0 -120z"/>
<path d="M4438 2390 c-254 -192 -412 -443 -412 -660 -1 -106 20 -177 75 -260
146 -218 430 -279 668 -144 58 32 136 116 174 184 119 220 38 499 -222 759
-64 64 -197 171 -212 171 -2 0 -34 -23 -71 -50z m256 -413 c83 -126 111 -259
73 -348 -20 -50 -82 -116 -131 -142 -58 -31 -194 -31 -251 0 -41 22 -99 79
-125 123 -19 33 -23 175 -6 221 44 117 94 193 192 289 l66 65 72 -75 c39 -41
88 -101 110 -133z"/>
<path d="M730 1636 l0 -725 47 -7 c26 -4 145 -4 263 -1 334 9 466 44 649 170
68 47 181 166 181 191 0 5 6 17 13 25 20 24 54 117 71 198 54 247 -40 521
-234 682 -76 63 -221 134 -319 156 -88 19 -318 34 -523 35 l-148 0 0 -724z
m521 503 c46 -5 93 -14 104 -19 11 -5 49 -21 85 -36 133 -57 233 -175 270
-320 48 -188 0 -363 -135 -494 -118 -112 -265 -160 -497 -160 l-108 0 0 513
c0 283 3 517 7 520 10 11 180 8 274 -4z"/>
<path d="M2520 1638 l0 -725 31 -7 c17 -3 71 -6 120 -6 l89 0 2 298 3 297 25
0 c21 0 60 -46 238 -275 117 -151 220 -284 228 -295 13 -18 28 -20 161 -23
l146 -4 -54 69 c-30 37 -141 175 -246 307 -106 131 -193 242 -193 247 0 5 12
11 28 14 15 4 35 10 44 16 10 5 24 9 31 9 29 0 141 97 182 156 35 51 43 74 54
145 37 243 -103 424 -364 474 -44 9 -173 18 -301 22 l-224 6 0 -725z m495 499
c81 -22 147 -80 165 -147 26 -98 -13 -195 -99 -247 -66 -39 -127 -53 -236 -53
l-85 0 0 231 0 231 118 -5 c64 -2 126 -7 137 -10z"/>
<path d="M5600 1638 l0 -725 31 -7 c17 -3 71 -6 120 -6 l89 0 2 296 3 295 105
4 c161 5 188 10 280 47 71 29 101 49 161 109 55 54 70 76 87 130 29 90 35 139
22 209 -15 83 -62 170 -124 228 -114 108 -204 131 -533 139 l-243 6 0 -725z
m415 508 c111 -5 185 -40 226 -104 28 -44 30 -53 27 -124 -3 -68 -6 -80 -34
-115 -34 -42 -90 -78 -144 -92 -19 -6 -82 -11 -140 -13 l-105 -3 -3 220 c-1
121 0 225 2 231 3 7 21 10 48 8 24 -2 79 -5 123 -8z"/>
<path d="M4130 1011 l0 -98 31 -7 c17 -3 189 -6 381 -6 l349 0 -2 105 -1 105
-379 0 -379 0 0 -99z"/>
</g>
</svg>
